<mxfile host="app.diagrams.net" modified="2022-07-09T17:32:38.529Z" agent="5.0 (Windows NT 10.0; Win64; x64) AppleWebKit/537.36 (KHTML, like Gecko) Chrome/96.0.4664.110 Safari/537.36" etag="AwkJ_fycepQvYvsxwt20" version="20.0.4" type="github">
  <diagram id="C5RBs43oDa-KdzZeNtuy" name="Page-1">
    <mxGraphModel dx="1422" dy="762" grid="1" gridSize="10" guides="1" tooltips="1" connect="1" arrows="1" fold="1" page="1" pageScale="1" pageWidth="827" pageHeight="1169" math="0" shadow="0">
      <root>
        <mxCell id="WIyWlLk6GJQsqaUBKTNV-0" />
        <mxCell id="WIyWlLk6GJQsqaUBKTNV-1" parent="WIyWlLk6GJQsqaUBKTNV-0" />
        <mxCell id="4gNA6YqurAzZcvW3IFZ7-11" value="" style="edgeStyle=orthogonalEdgeStyle;rounded=0;orthogonalLoop=1;jettySize=auto;html=1;fontSize=18;" edge="1" parent="WIyWlLk6GJQsqaUBKTNV-1" source="4gNA6YqurAzZcvW3IFZ7-0" target="4gNA6YqurAzZcvW3IFZ7-2">
          <mxGeometry relative="1" as="geometry" />
        </mxCell>
        <mxCell id="4gNA6YqurAzZcvW3IFZ7-0" value="&lt;font style=&quot;font-size: 18px;&quot;&gt;Position Publishing Node&lt;/font&gt;" style="rounded=0;whiteSpace=wrap;html=1;" vertex="1" parent="WIyWlLk6GJQsqaUBKTNV-1">
          <mxGeometry x="304" y="140" width="190" height="60" as="geometry" />
        </mxCell>
        <mxCell id="4gNA6YqurAzZcvW3IFZ7-1" value="&lt;font style=&quot;font-size: 18px;&quot;&gt;Position Transformation Node&lt;/font&gt;" style="rounded=0;whiteSpace=wrap;html=1;" vertex="1" parent="WIyWlLk6GJQsqaUBKTNV-1">
          <mxGeometry x="10" y="250" width="196" height="60" as="geometry" />
        </mxCell>
        <mxCell id="4gNA6YqurAzZcvW3IFZ7-2" value="&lt;font style=&quot;font-size: 18px;&quot;&gt;MPC_controller Node&lt;/font&gt;" style="rounded=0;whiteSpace=wrap;html=1;" vertex="1" parent="WIyWlLk6GJQsqaUBKTNV-1">
          <mxGeometry x="304" y="250" width="190" height="60" as="geometry" />
        </mxCell>
        <mxCell id="4gNA6YqurAzZcvW3IFZ7-8" value="&lt;span style=&quot;font-size: 18px;&quot;&gt;Target Tracker Node&lt;/span&gt;" style="rounded=0;whiteSpace=wrap;html=1;" vertex="1" parent="WIyWlLk6GJQsqaUBKTNV-1">
          <mxGeometry x="301" y="360" width="196" height="60" as="geometry" />
        </mxCell>
        <mxCell id="4gNA6YqurAzZcvW3IFZ7-9" value="&lt;span style=&quot;font-size: 18px;&quot;&gt;Robot Controller&amp;nbsp;&lt;br&gt;&amp;nbsp;Node&lt;/span&gt;" style="rounded=0;whiteSpace=wrap;html=1;" vertex="1" parent="WIyWlLk6GJQsqaUBKTNV-1">
          <mxGeometry x="591" y="250" width="196" height="60" as="geometry" />
        </mxCell>
        <mxCell id="4gNA6YqurAzZcvW3IFZ7-13" value="" style="endArrow=classic;startArrow=classic;html=1;rounded=0;fontSize=18;exitX=1;exitY=0.5;exitDx=0;exitDy=0;entryX=0;entryY=0.5;entryDx=0;entryDy=0;" edge="1" parent="WIyWlLk6GJQsqaUBKTNV-1" source="4gNA6YqurAzZcvW3IFZ7-1" target="4gNA6YqurAzZcvW3IFZ7-2">
          <mxGeometry width="50" height="50" relative="1" as="geometry">
            <mxPoint x="231" y="330" as="sourcePoint" />
            <mxPoint x="281" y="280" as="targetPoint" />
          </mxGeometry>
        </mxCell>
        <mxCell id="4gNA6YqurAzZcvW3IFZ7-15" value="" style="endArrow=classic;startArrow=classic;html=1;rounded=0;fontSize=18;entryX=0.5;entryY=1;entryDx=0;entryDy=0;exitX=0.5;exitY=0;exitDx=0;exitDy=0;" edge="1" parent="WIyWlLk6GJQsqaUBKTNV-1" source="4gNA6YqurAzZcvW3IFZ7-8" target="4gNA6YqurAzZcvW3IFZ7-2">
          <mxGeometry width="50" height="50" relative="1" as="geometry">
            <mxPoint x="413" y="370" as="sourcePoint" />
            <mxPoint x="463" y="320" as="targetPoint" />
          </mxGeometry>
        </mxCell>
        <mxCell id="4gNA6YqurAzZcvW3IFZ7-18" value="" style="endArrow=classic;startArrow=classic;html=1;rounded=0;fontSize=18;exitX=1;exitY=0.5;exitDx=0;exitDy=0;" edge="1" parent="WIyWlLk6GJQsqaUBKTNV-1" source="4gNA6YqurAzZcvW3IFZ7-2">
          <mxGeometry width="50" height="50" relative="1" as="geometry">
            <mxPoint x="390" y="370" as="sourcePoint" />
            <mxPoint x="590" y="280" as="targetPoint" />
          </mxGeometry>
        </mxCell>
      </root>
    </mxGraphModel>
  </diagram>
</mxfile>
